Coordinates
version=1
nRows=7
nColumns=46
inDegrees=yes

Units are S.I. units (second, meters, Newtons, ...)
Angles are in degrees.

endheader
time	pelvis_tilt	pelvis_list	pelvis_rotation	pelvis_tx	pelvis_ty	pelvis_tz	bb_angle	bb_tx	bb_ty	bb_tz	hip_flexion_r	hip_adduction_r	hip_rotation_r	knee_angle_r	knee_angle_r_beta	ankle_angle_r	subtalar_angle_r	mtp_angle_r	crank_angle_r	hip_flexion_l	hip_adduction_l	hip_rotation_l	knee_angle_l	knee_angle_l_beta	ankle_angle_l	subtalar_angle_l	mtp_angle_l	crank_angle_l	lumbar_extension	lumbar_bending	lumbar_rotation	arm_flex_r	arm_add_r	arm_rot_r	elbow_flex_r	pro_sup_r	wrist_flex_r	wrist_dev_r	arm_flex_l	arm_add_l	arm_rot_l	elbow_flex_l	pro_sup_l	wrist_flex_l	wrist_dev_l
      7.50000000	    -16.95486501	      9.47235391	      7.96930929	      0.16210793	      1.13171611	     -0.20115821	      0.00000000	      0.50000000	      0.00000000	      0.25000000	     32.79771640	    -13.61861959	      1.22726305	     19.55524843	      0.34130347	    -11.44447907	     -8.14438281	      0.00000000	      0.00000000	     86.16113798	      7.72082084	      3.72145187	    107.24681426	      1.87181002	      2.83220945	     -2.96848990	      0.00000000	      0.00000000	    -62.20658615	     -9.08327177	    -21.53112969	     82.92508378	     -9.79945104	     36.84064524	     48.37056241	     44.24426373	      0.00000000	      0.00000000	     89.21833424	    -25.89576710	     36.74685385	     65.82263867	     44.29562473	      0.00000000	      0.00000000
      7.50500000	    -17.19103634	      9.54935717	      8.00738252	      0.16184880	      1.13279764	     -0.20100109	      0.00000000	      0.50000000	      0.00000000	      0.25000000	     32.80201478	    -13.67998093	      1.14090570	     20.23017869	      0.35308323	    -11.67320726	     -8.53814937	      0.00000000	      0.00000000	     86.54237291	      7.50429359	      3.49358882	    106.54431275	      1.85954906	      4.39444438	     -2.42839017	      0.00000000	      0.00000000	    -62.18918819	     -9.34838865	    -21.59926615	     83.00251864	     -9.82349573	     36.55815875	     48.14816420	     44.23811032	      0.00000000	      0.00000000	     89.26427979	    -25.53504573	     36.65004164	     65.82312900	     44.17614360	      0.00000000	      0.00000000
      7.51000000	    -17.45515230	      9.54741357	      8.25650296	      0.16192796	      1.13424306	     -0.20098403	      0.00000000	      0.50000000	      0.00000000	      0.25000000	     32.81187609	    -13.76073245	      0.93326951	     20.99287570	      0.36639480	    -11.90715056	     -9.06506778	      0.00000000	      0.00000000	     86.69213273	      7.48680866	      3.22315920	    105.60105778	      1.84308615	      6.08305983	     -2.79226052	      0.00000000	      0.00000000	    -62.17772253	     -9.33180180	    -21.68957435	     83.10394404	     -9.87393043	     36.38741852	     48.09071269	     44.22769981	      0.00000000	      0.00000000	     89.30506675	    -25.34683369	     36.65980758	     65.88671926	     44.15116111	      0.00000000	      0.00000000
      7.51500000	    -17.51865352	      9.54285678	      8.20074685	      0.16156321	      1.13549982	     -0.20155483	      0.00000000	      0.50000000	      0.00000000	      0.25000000	     33.02723486	    -13.74156092	      0.99555632	     22.32455735	      0.38963703	    -12.09216421	     -9.74130647	      0.00000000	      0.00000000	     86.62716701	      7.18038611	      3.00798028	    104.64749814	      1.82644340	      7.83110043	     -2.62228098	      0.00000000	      0.00000000	    -62.29256910	     -9.41954685	    -21.64443389	     83.31453834	     -9.94673374	     36.12645137	     48.03054142	     44.20950769	      0.00000000	      0.00000000	     89.33250015	    -25.16910588	     36.65272805	     65.96494643	     44.11749381	      0.00000000	      0.00000000
      7.52000000	    -17.70885035	      9.22789484	      7.45752748	      0.16065217	      1.13543623	     -0.20336328	      0.00000000	      0.50000000	      0.00000000	      0.25000000	     33.91026296	    -13.17463829	      1.79299637	     24.19419551	      0.42226837	    -12.06277672	    -10.25693620	      0.00000000	      0.00000000	     86.71310875	      6.47884485	      3.08196028	    103.82127849	      1.81202314	      9.99923037	     -2.10359157	      0.00000000	      0.00000000	    -62.00923239	     -9.76006689	    -20.92884929	     83.52504922	    -10.11528285	     35.64858226	     47.89003305	     44.21263125	      0.00000000	      0.00000000	     89.30482008	    -24.84779318	     36.59995133	     66.06742874	     43.97829452	      0.00000000	      0.00000000
      7.52500000	    -17.75194399	      9.15521341	      7.31929916	      0.16021767	      1.13670379	     -0.20422375	      0.00000000	      0.50000000	      0.00000000	      0.25000000	     34.45198545	    -13.01864722	      2.23540193	     26.04752763	      0.45461512	    -12.25624275	    -11.13160228	      0.00000000	      0.00000000	     86.24635250	      6.28508691	      2.90480488	    102.44486495	      1.78800020	     11.87389449	     -2.36191556	      0.00000000	      0.00000000	    -62.11120180	     -9.79203302	    -20.71006845	     83.69526795	    -10.28595080	     35.28699195	     47.92940208	     44.23885973	      0.00000000	      0.00000000	     89.32741270	    -24.63322028	     36.61046262	     66.09838315	     43.87355691	      0.00000000	      0.00000000
      7.53000000	    -17.63081966	      9.00724321	      7.16073506	      0.15982038	      1.13806985	     -0.20537549	      0.00000000	      0.50000000	      0.00000000	      0.25000000	     34.93419566	    -12.78040772	      2.70289704	     28.10488183	      0.49052272	    -12.48249433	    -11.96336586	      0.00000000	      0.00000000	     85.47112319	      6.19576883	      2.73528393	    100.86701945	      1.76046160	     13.73851988	     -3.26844012	      0.00000000	      0.00000000	    -62.31985649	     -9.65707111	    -20.43717643	     83.96617601	    -10.42705585	     35.03853820	     47.99232587	     44.24892552	      0.00000000	      0.00000000	     89.33906902	    -24.58342305	     36.61644989	     66.12949028	     43.82473889	      0.00000000	      0.00000000
